<svg xmlns="http://www.w3.org/2000/svg" xmlns:xlink="http://www.w3.org/1999/xlink" width="300" zoomAndPan="magnify" viewBox="0 0 224.87999 225" height="300" preserveAspectRatio="xMidYMid meet" version="1.0"><defs><clipPath id="id1"><path d="M 33.304688 44 L 191.46875 44 L 191.46875 224.277344 L 33.304688 224.277344 Z M 33.304688 44 " clip-rule="nonzero"/></clipPath><clipPath id="id2"><path d="M 48 0.894531 L 78 0.894531 L 78 32 L 48 32 Z M 48 0.894531 " clip-rule="nonzero"/></clipPath><clipPath id="id3"><path d="M 81 0.894531 L 110 0.894531 L 110 32 L 81 32 Z M 81 0.894531 " clip-rule="nonzero"/></clipPath><clipPath id="id4"><path d="M 113 0.894531 L 148 0.894531 L 148 32 L 113 32 Z M 113 0.894531 " clip-rule="nonzero"/></clipPath><clipPath id="id5"><path d="M 152 0.894531 L 178 0.894531 L 178 32 L 152 32 Z M 152 0.894531 " clip-rule="nonzero"/></clipPath></defs><g clip-path="url(#id1)"><path fill="#e44d26" d="M 191.425781 44.792969 L 177.027344 206.304688 L 112.316406 224.269531 L 47.785156 206.328125 L 33.40625 44.792969 L 191.429688 44.792969 Z M 191.425781 44.792969 " fill-opacity="1" fill-rule="nonzero"/></g><path fill="#f16529" d="M 112.417969 210.535156 L 164.707031 196.019531 L 177.011719 58.003906 L 112.417969 58.003906 Z M 112.417969 210.535156 " fill-opacity="1" fill-rule="nonzero"/><path fill="#ebebeb" d="M 84.429688 97.625 L 112.417969 97.625 L 112.417969 77.8125 L 62.8125 77.8125 L 63.285156 83.128906 L 68.148438 137.722656 L 112.417969 137.722656 L 112.417969 117.914062 L 86.238281 117.914062 Z M 84.429688 97.625 " fill-opacity="1" fill-rule="nonzero"/><path fill="#ebebeb" d="M 88.890625 147.628906 L 69.03125 147.628906 L 71.800781 178.738281 L 112.324219 190.003906 L 112.417969 189.980469 L 112.417969 169.367188 L 112.328125 169.390625 L 90.296875 163.429688 Z M 88.890625 147.628906 " fill-opacity="1" fill-rule="nonzero"/><g clip-path="url(#id2)"><path fill="#000000" d="M 48.109375 0.894531 L 58.160156 0.894531 L 58.160156 10.84375 L 67.355469 10.84375 L 67.355469 0.894531 L 77.410156 0.894531 L 77.410156 31.019531 L 67.359375 31.019531 L 67.359375 20.933594 L 58.160156 20.933594 L 58.160156 31.019531 L 48.109375 31.019531 Z M 48.109375 0.894531 " fill-opacity="1" fill-rule="nonzero"/></g><g clip-path="url(#id3)"><path fill="#000000" d="M 90.632812 10.886719 L 81.78125 10.886719 L 81.78125 0.894531 L 109.542969 0.894531 L 109.542969 10.886719 L 100.683594 10.886719 L 100.683594 31.019531 L 90.632812 31.019531 Z M 90.632812 10.886719 " fill-opacity="1" fill-rule="nonzero"/></g><g clip-path="url(#id4)"><path fill="#000000" d="M 113.945312 0.894531 L 124.425781 0.894531 L 130.875 11.480469 L 137.316406 0.894531 L 147.804688 0.894531 L 147.804688 31.019531 L 137.792969 31.019531 L 137.792969 16.089844 L 130.875 26.796875 L 130.703125 26.796875 L 123.78125 16.089844 L 123.78125 31.019531 L 113.945312 31.019531 Z M 113.945312 0.894531 " fill-opacity="1" fill-rule="nonzero"/></g><g clip-path="url(#id5)"><path fill="#000000" d="M 152.808594 0.894531 L 162.863281 0.894531 L 162.863281 21.0625 L 177.003906 21.0625 L 177.003906 31.019531 L 152.808594 31.019531 Z M 152.808594 0.894531 " fill-opacity="1" fill-rule="nonzero"/></g><path fill="#ffffff" d="M 112.347656 137.722656 L 136.710938 137.722656 L 134.414062 163.417969 L 112.347656 169.382812 L 112.347656 189.992188 L 152.902344 178.738281 L 153.199219 175.390625 L 157.851562 123.230469 L 158.335938 117.914062 L 112.347656 117.914062 Z M 112.347656 137.722656 " fill-opacity="1" fill-rule="nonzero"/><path fill="#ffffff" d="M 112.347656 97.574219 L 112.347656 97.625 L 160.132812 97.625 L 160.527344 93.171875 L 161.433594 83.128906 L 161.902344 77.8125 L 112.347656 77.8125 Z M 112.347656 97.574219 " fill-opacity="1" fill-rule="nonzero"/></svg>