<svg xmlns="http://www.w3.org/2000/svg" xmlns:xlink="http://www.w3.org/1999/xlink" width="300" zoomAndPan="magnify" viewBox="0 0 224.87999 225" height="300" preserveAspectRatio="xMidYMid meet" version="1.0"><defs><clipPath id="id1"><path d="M 95 74 L 223.570312 74 L 223.570312 167.53125 L 95 167.53125 Z M 95 74 " clip-rule="nonzero"/></clipPath><clipPath id="id2"><path d="M 96 57.339844 L 189 57.339844 L 189 134 L 96 134 Z M 96 57.339844 " clip-rule="nonzero"/></clipPath></defs><g clip-path="url(#id1)"><path fill="#000c11" d="M 100.324219 95.242188 C 99.25 97.300781 98.238281 99.769531 97.628906 101.816406 C 97.367188 102.695312 97.066406 103.820312 96.949219 104.367188 C 96.238281 107.605469 95.960938 110.246094 96 113.496094 C 96.011719 114.722656 96.171875 116.757812 96.355469 118.082031 C 96.703125 120.601562 97.421875 123.5 98.253906 125.785156 C 99.628906 129.546875 101.457031 132.910156 103.792969 135.976562 C 106.425781 139.429688 109.460938 142.25 113.246094 144.753906 C 113.929688 145.203125 116.1875 146.5 116.894531 146.847656 C 120.148438 148.445312 123.039062 149.4375 126.375 150.113281 C 130.738281 151 135.183594 151.101562 139.648438 150.417969 C 142.546875 149.976562 145.734375 149.089844 148.40625 147.980469 C 150.941406 146.925781 153.011719 145.8125 155.253906 144.300781 C 157.695312 142.648438 159.859375 140.792969 161.851562 138.632812 C 163.132812 137.242188 164.40625 135.628906 165.414062 134.113281 L 165.59375 133.84375 L 167.921875 135.179688 L 170.253906 136.519531 L 169.847656 137.230469 C 169.535156 137.769531 169.429688 137.980469 169.386719 138.121094 C 169.207031 138.769531 169.371094 139.484375 169.816406 139.984375 C 169.992188 140.183594 170 140.1875 170.878906 140.703125 C 171.367188 140.992188 181.964844 147.097656 194.425781 154.273438 C 214.257812 165.695312 217.113281 167.335938 217.300781 167.394531 C 217.5625 167.480469 218.011719 167.511719 218.277344 167.460938 C 218.527344 167.410156 218.820312 167.285156 219.046875 167.125 C 219.421875 166.863281 219.34375 166.984375 221.507812 163.195312 L 223.480469 159.738281 L 223.515625 159.511719 C 223.566406 159.175781 223.550781 158.902344 223.460938 158.597656 C 223.371094 158.289062 223.269531 158.09375 223.0625 157.835938 L 222.917969 157.664062 L 218.511719 155.105469 C 216.082031 153.703125 205.433594 147.566406 194.839844 141.472656 L 175.574219 130.394531 L 175.355469 130.351562 C 174.738281 130.234375 174.132812 130.398438 173.644531 130.808594 C 173.464844 130.960938 173.445312 130.984375 173.007812 131.726562 L 172.558594 132.488281 L 172.324219 132.328125 C 172.191406 132.238281 171.144531 131.628906 170.003906 130.972656 L 167.929688 129.78125 L 168.175781 129.273438 C 168.464844 128.691406 168.785156 127.957031 169.15625 127.035156 C 169.414062 126.40625 169.480469 126.226562 169.796875 125.324219 C 170.6875 122.792969 171.34375 119.867188 171.648438 117.074219 C 171.722656 116.402344 171.839844 114.699219 171.855469 114.125 C 171.871094 113.457031 171.871094 113.238281 171.871094 112.820312 C 171.839844 106.769531 170.371094 100.789062 167.609375 95.429688 C 166.519531 93.324219 165.207031 91.277344 163.746094 89.410156 C 161.40625 86.425781 158.597656 83.789062 155.496094 81.652344 C 153.78125 80.476562 151.882812 79.386719 150.03125 78.519531 C 143.25 75.335938 135.648438 74.246094 128.207031 75.398438 C 123.695312 76.09375 119.324219 77.597656 115.390625 79.800781 C 112.152344 81.609375 109.429688 83.691406 106.753906 86.394531 C 106.164062 86.992188 105.238281 88.03125 104.601562 88.808594 C 104.179688 89.320312 103.984375 89.574219 103.359375 90.394531 C 102.527344 91.488281 101.054688 93.839844 100.324219 95.242188 Z M 110.679688 97.0625 C 112.382812 94.578125 114.265625 92.558594 116.585938 90.730469 C 119.328125 88.570312 122.425781 86.957031 125.789062 85.9375 C 126.421875 85.746094 126.460938 85.734375 127.164062 85.5625 C 128.871094 85.144531 130.335938 84.914062 132.085938 84.796875 C 136.730469 84.492188 141.355469 85.347656 145.640625 87.316406 C 146.847656 87.867188 148.65625 88.878906 149.632812 89.546875 C 152.472656 91.492188 154.664062 93.585938 156.613281 96.214844 C 159.902344 100.660156 161.835938 106.140625 162.066406 111.679688 C 162.269531 116.457031 161.261719 121.15625 159.117188 125.449219 C 158.820312 126.042969 157.820312 127.792969 157.496094 128.28125 C 156.980469 129.058594 156.445312 129.8125 156.078125 130.277344 C 155.972656 130.40625 155.796875 130.628906 155.6875 130.765625 C 154.273438 132.539062 152.191406 134.488281 150.210938 135.890625 C 149.050781 136.714844 147.964844 137.371094 146.648438 138.039062 C 139.5625 141.65625 131.183594 142.0625 123.742188 139.144531 C 122.300781 138.582031 121.53125 138.203125 119.921875 137.28125 C 118.34375 136.375 117.742188 135.972656 116.515625 135.011719 C 110.925781 130.640625 107.199219 124.265625 106.105469 117.21875 C 105.660156 114.324219 105.667969 111.367188 106.136719 108.457031 C 106.574219 105.734375 107.460938 102.964844 108.667969 100.542969 C 108.816406 100.246094 108.972656 99.933594 109.015625 99.851562 C 109.214844 99.441406 110.355469 97.542969 110.679688 97.0625 Z M 110.679688 97.0625 " fill-opacity="1" fill-rule="nonzero"/></g><path fill="#000000" d="M 22.007812 81.320312 C 19.875 81.371094 19.152344 81.433594 18.71875 81.605469 C 18.421875 81.71875 17.777344 81.867188 17.292969 81.941406 C 16.820312 82.003906 16.113281 82.152344 15.742188 82.25 C 14.152344 82.710938 12.191406 83.355469 11.957031 83.492188 C 11.820312 83.578125 11.347656 83.789062 10.914062 83.976562 C 10.480469 84.148438 9.984375 84.398438 9.796875 84.523438 C 9.625 84.648438 8.992188 85.070312 8.410156 85.453125 C 5.878906 87.09375 3.445312 90.046875 2.464844 92.664062 C 2.316406 93.074219 2.117188 93.585938 2.019531 93.796875 C 1.933594 94.019531 1.820312 94.402344 1.769531 94.664062 C 1.734375 94.9375 1.585938 95.53125 1.460938 96.015625 C 1.152344 97.234375 0.941406 100.882812 1.101562 102.558594 C 1.3125 104.71875 1.449219 105.710938 1.648438 106.207031 C 1.746094 106.480469 1.96875 107.175781 2.144531 107.761719 C 2.613281 109.335938 4.351562 112.09375 5.492188 113.074219 C 5.617188 113.183594 6.039062 113.542969 6.421875 113.867188 C 7.738281 115.007812 10.257812 116.511719 11.769531 117.058594 C 12.21875 117.21875 12.6875 117.417969 12.824219 117.503906 C 12.960938 117.589844 13.296875 117.714844 13.570312 117.789062 C 13.84375 117.851562 14.464844 118.039062 14.933594 118.1875 C 16.820312 118.769531 22.316406 120.050781 24.242188 120.359375 C 24.511719 120.398438 25.097656 120.53125 25.542969 120.65625 C 25.988281 120.792969 26.96875 121.003906 27.714844 121.152344 C 28.472656 121.300781 29.304688 121.527344 29.574219 121.648438 C 29.847656 121.785156 30.359375 121.949219 30.691406 122.023438 C 31.535156 122.207031 33.433594 123.140625 34.066406 123.6875 C 34.785156 124.320312 35.382812 125.164062 35.792969 126.179688 C 36.113281 126.976562 36.152344 127.1875 36.152344 128.539062 C 36.152344 129.890625 36.113281 130.105469 35.792969 130.921875 C 34.886719 133.167969 32.863281 134.707031 29.886719 135.429688 C 29.648438 135.476562 28.894531 135.628906 28.210938 135.765625 C 25.988281 136.171875 20.40625 136.023438 17.789062 135.492188 C 17.316406 135.402344 16.671875 135.28125 16.363281 135.242188 C 16.050781 135.191406 15.445312 135.054688 14.996094 134.933594 C 14.550781 134.796875 13.695312 134.574219 13.074219 134.421875 C 12.464844 134.273438 11.695312 134.011719 11.375 133.851562 C 11.050781 133.703125 10.703125 133.566406 10.617188 133.566406 C 10.34375 133.566406 8.546875 132.972656 8.359375 132.820312 C 8.273438 132.761719 7.851562 132.585938 7.417969 132.4375 C 6.597656 132.175781 6.421875 132.101562 3.867188 130.898438 C 2.914062 130.4375 2.28125 130.214844 2.144531 130.265625 C 1.945312 130.339844 1.933594 130.550781 2.007812 133.230469 C 2.054688 134.820312 2.09375 137.625 2.09375 139.488281 C 2.09375 143.375 2.042969 143.210938 3.335938 143.570312 C 3.707031 143.671875 4.214844 143.84375 4.449219 143.929688 C 4.6875 144.03125 5.109375 144.167969 5.382812 144.242188 C 5.65625 144.304688 6.300781 144.476562 6.808594 144.625 C 7.316406 144.761719 8.074219 144.960938 8.484375 145.0625 C 8.894531 145.160156 9.585938 145.347656 10.035156 145.484375 C 10.480469 145.621094 11.199219 145.792969 11.648438 145.855469 C 12.09375 145.929688 12.675781 146.042969 12.949219 146.105469 C 13.222656 146.167969 13.644531 146.226562 13.878906 146.226562 C 14.117188 146.226562 14.710938 146.378906 15.183594 146.539062 C 15.816406 146.761719 16.3125 146.847656 17.007812 146.847656 C 17.527344 146.847656 18.644531 146.9375 19.488281 147.046875 C 20.777344 147.222656 21.882812 147.246094 26.535156 147.183594 C 31.460938 147.121094 32.167969 147.085938 33.050781 146.875 C 33.597656 146.738281 34.378906 146.589844 34.785156 146.550781 C 35.195312 146.5 35.839844 146.378906 36.214844 146.265625 C 36.585938 146.152344 37.207031 145.992188 37.578125 145.90625 C 39.527344 145.445312 42.378906 144.179688 44.214844 142.9375 C 45.433594 142.132812 47.378906 140.183594 48.222656 138.917969 C 49.351562 137.242188 50.605469 134.421875 50.605469 133.554688 C 50.605469 133.394531 50.742188 133.007812 50.890625 132.699219 C 51.054688 132.386719 51.265625 131.878906 51.351562 131.542969 C 51.535156 130.835938 51.6875 130.710938 51.835938 131.121094 C 51.898438 131.296875 51.996094 134.574219 52.046875 138.40625 C 52.121094 143.992188 52.167969 145.410156 52.304688 145.546875 C 52.429688 145.683594 53.210938 145.707031 56.351562 145.65625 C 58.472656 145.632812 64.242188 145.546875 69.15625 145.484375 C 74.070312 145.410156 79.675781 145.335938 81.625 145.296875 C 83.574219 145.261719 87.816406 145.199219 91.066406 145.160156 C 94.316406 145.109375 97.046875 145.035156 97.132812 144.988281 C 97.257812 144.914062 97.257812 143.707031 97.160156 139.226562 C 97.085938 136.113281 96.984375 133.503906 96.9375 133.429688 C 96.859375 133.304688 93.859375 133.320312 84.292969 133.503906 C 82.59375 133.542969 78.347656 133.605469 74.863281 133.640625 C 68.546875 133.714844 68.535156 133.714844 68.199219 133.457031 C 67.988281 133.28125 67.851562 133.03125 67.804688 132.722656 C 67.765625 132.472656 67.730469 129.210938 67.703125 125.472656 L 67.667969 118.683594 L 68.238281 118.113281 L 77.132812 118.011719 C 82.023438 117.964844 87.839844 117.875 90.0625 117.828125 L 94.09375 117.738281 L 94.132812 112.042969 C 94.15625 107.710938 94.117188 106.308594 94.007812 106.171875 C 93.882812 106.011719 93.523438 105.996094 91.800781 106.058594 C 90.667969 106.097656 86.464844 106.160156 82.429688 106.195312 C 78.410156 106.234375 73.609375 106.296875 71.761719 106.332031 C 68.285156 106.40625 67.863281 106.371094 67.617188 105.910156 C 67.441406 105.585938 67.367188 103.550781 67.34375 98.449219 L 67.320312 94.179688 L 67.652344 93.882812 C 67.964844 93.621094 68.101562 93.597656 69.503906 93.597656 C 70.335938 93.597656 72.15625 93.558594 73.558594 93.535156 C 74.960938 93.496094 80.398438 93.410156 85.65625 93.347656 C 93.375 93.25 95.234375 93.1875 95.371094 93.050781 C 95.507812 92.914062 95.519531 91.894531 95.445312 87.214844 C 95.371094 82.1875 95.335938 81.53125 95.160156 81.457031 C 95.050781 81.40625 93.199219 81.394531 91.054688 81.445312 C 88.90625 81.480469 81.921875 81.59375 75.546875 81.667969 C 52.246094 81.953125 51.625 81.976562 51.425781 82.175781 C 51.277344 82.339844 51.265625 83.304688 51.351562 89.253906 C 51.460938 96.625 51.746094 117.628906 51.761719 119.789062 C 51.785156 121.824219 51.523438 122.632812 51.214844 121.488281 C 51.140625 121.203125 50.980469 120.855469 50.855469 120.71875 C 50.71875 120.582031 50.457031 119.960938 50.246094 119.355469 C 49.140625 115.964844 46.699219 113.347656 42.726562 111.308594 C 41.984375 110.925781 40.976562 110.464844 40.496094 110.28125 C 40.023438 110.105469 39.550781 109.90625 39.464844 109.832031 C 39.378906 109.757812 39.003906 109.621094 38.632812 109.523438 C 38.261719 109.4375 37.652344 109.285156 37.292969 109.1875 C 36.933594 109.101562 36.472656 108.9375 36.277344 108.839844 C 36.066406 108.726562 35.542969 108.578125 35.097656 108.503906 C 33.433594 108.230469 32.207031 107.996094 31.585938 107.820312 C 31.226562 107.722656 30.605469 107.597656 30.195312 107.5625 C 29.785156 107.511719 29.140625 107.398438 28.769531 107.3125 C 28.398438 107.226562 27.839844 107.113281 27.527344 107.078125 C 26.535156 106.941406 22.800781 106.132812 21.386719 105.75 C 20.566406 105.527344 19.824219 105.226562 18.410156 104.582031 C 17.578125 104.199219 16.425781 103.128906 16.050781 102.410156 C 15.890625 102.085938 15.679688 101.355469 15.582031 100.785156 C 15.429688 99.902344 15.429688 99.566406 15.554688 98.625 C 15.742188 97.308594 15.964844 96.738281 16.609375 95.878906 C 17.765625 94.339844 20.121094 93.25 23.0625 92.890625 C 27.058594 92.40625 28.171875 92.367188 29.949219 92.664062 C 30.570312 92.765625 31.460938 92.851562 31.933594 92.851562 C 32.417969 92.851562 33.136719 92.914062 33.546875 92.988281 C 33.957031 93.050781 34.773438 93.1875 35.359375 93.285156 C 35.953125 93.375 36.546875 93.507812 36.699219 93.585938 C 36.835938 93.671875 37.355469 93.808594 37.851562 93.894531 C 39.09375 94.128906 41.699219 94.875 43.101562 95.410156 C 43.582031 95.582031 44.253906 95.832031 44.589844 95.957031 C 44.9375 96.078125 45.53125 96.316406 45.917969 96.488281 C 46.597656 96.785156 46.636719 96.800781 46.746094 96.589844 C 46.820312 96.453125 46.847656 94.09375 46.796875 90.320312 C 46.734375 85.042969 46.699219 84.238281 46.523438 84.027344 C 46.386719 83.851562 46.066406 83.753906 45.433594 83.679688 C 44.949219 83.617188 44.476562 83.53125 44.402344 83.480469 C 44.328125 83.429688 43.871094 83.34375 43.398438 83.28125 C 42.925781 83.21875 42.394531 83.09375 42.207031 82.996094 C 42.007812 82.898438 41.523438 82.785156 41.113281 82.746094 C 40.707031 82.699219 39.898438 82.585938 39.316406 82.488281 C 32.902344 81.40625 28.90625 81.132812 22.007812 81.320312 Z M 22.007812 81.320312 " fill-opacity="1" fill-rule="nonzero"/><g clip-path="url(#id2)"><path fill="#000000" d="M 186.472656 57.363281 C 185.511719 57.363281 181.511719 59.019531 168.167969 64.761719 C 158.105469 69.101562 150.046875 72.746094 150.304688 72.855469 C 150.558594 72.964844 154.351562 73.550781 158.761719 74.097656 C 163.171875 74.644531 166.816406 75.15625 166.890625 75.191406 C 166.953125 75.25 164.753906 79.648438 161.242188 86.535156 C 159.828125 89.3125 158.195312 92.492188 156.414062 95.953125 C 156.414062 95.953125 156.417969 95.953125 156.417969 95.957031 L 156.414062 95.957031 C 154.585938 99.503906 152.601562 103.347656 150.523438 107.359375 L 147.277344 113.597656 L 132.804688 103.675781 L 118.367188 93.753906 L 114.832031 97.949219 C 111.890625 101.496094 108.851562 105.191406 106.121094 108.53125 C 106.121094 108.535156 106.121094 108.535156 106.121094 108.535156 C 101.078125 114.703125 97.09375 119.660156 96.722656 120.230469 C 96.699219 120.265625 96.6875 120.285156 96.695312 120.285156 C 96.699219 120.285156 96.703125 120.28125 96.714844 120.269531 C 96.71875 120.265625 96.722656 120.265625 96.726562 120.261719 C 96.875 120.148438 96.988281 120.078125 97.070312 120.078125 C 97.316406 120.078125 97.335938 120.660156 97.335938 122.566406 L 97.335938 122.84375 C 97.613281 123.882812 97.925781 124.882812 98.253906 125.785156 C 98.410156 126.207031 98.566406 126.621094 98.734375 127.03125 L 105.902344 118.664062 C 106.027344 118.519531 106.152344 118.371094 106.277344 118.226562 C 106.277344 118.226562 106.277344 118.226562 106.277344 118.222656 L 106.28125 118.222656 C 112.746094 110.695312 118.082031 104.585938 118.257812 104.585938 C 118.261719 104.585938 118.261719 104.585938 118.265625 104.585938 C 118.480469 104.585938 120.433594 106.324219 122.632812 108.488281 C 140.882812 126.210938 148.179688 133.117188 148.710938 133.117188 C 148.722656 133.117188 148.730469 133.113281 148.734375 133.109375 C 148.960938 132.882812 153.714844 124.535156 161.933594 109.917969 C 161.933594 109.914062 161.933594 109.914062 161.933594 109.914062 L 161.9375 109.914062 C 163.988281 106.261719 166.261719 102.21875 168.730469 97.808594 C 169.167969 97.027344 169.613281 96.238281 170.0625 95.433594 C 173.816406 88.722656 177.097656 82.996094 177.316406 82.742188 C 177.347656 82.710938 177.386719 82.695312 177.433594 82.695312 C 177.890625 82.695312 179.214844 84.246094 182.820312 89.015625 C 185.597656 92.652344 187.90625 95.617188 188.03125 95.617188 C 188.035156 95.617188 188.035156 95.617188 188.035156 95.617188 C 188.21875 95.46875 186.941406 58.011719 186.722656 57.464844 C 186.695312 57.398438 186.617188 57.363281 186.472656 57.363281 Z M 186.472656 57.363281 " fill-opacity="1" fill-rule="nonzero"/></g></svg>