<svg xmlns="http://www.w3.org/2000/svg" xmlns:xlink="http://www.w3.org/1999/xlink" width="300" zoomAndPan="magnify" viewBox="0 0 224.87999 225" height="300" preserveAspectRatio="xMidYMid meet" version="1.0"><defs><clipPath id="id1"><path d="M 15.988281 3 L 208.636719 3 L 208.636719 221 L 15.988281 221 Z M 15.988281 3 " clip-rule="nonzero"/></clipPath><clipPath id="id2"><path d="M 15.988281 4 L 182 4 L 182 182 L 15.988281 182 Z M 15.988281 4 " clip-rule="nonzero"/></clipPath></defs><g clip-path="url(#id1)"><path fill="#a9b9cb" d="M 208.628906 67.664062 C 208.621094 64.019531 207.847656 60.800781 206.273438 58.035156 C 204.722656 55.320312 202.40625 53.042969 199.304688 51.242188 C 173.660156 36.441406 147.984375 21.6875 122.34375 6.871094 C 115.4375 2.878906 108.730469 3.023438 101.867188 7.074219 C 91.664062 13.101562 40.554688 42.40625 25.320312 51.230469 C 19.054688 54.867188 16 60.425781 16 67.65625 C 15.988281 97.417969 16 127.183594 15.988281 156.949219 C 15.992188 160.507812 16.738281 163.667969 18.242188 166.394531 C 19.789062 169.191406 22.136719 171.53125 25.316406 173.367188 C 40.546875 182.203125 91.664062 211.5 101.871094 217.527344 C 108.734375 221.582031 115.4375 221.726562 122.355469 217.730469 C 147.984375 202.914062 173.660156 188.160156 199.316406 173.359375 C 202.492188 171.515625 204.839844 169.175781 206.390625 166.386719 C 207.886719 163.664062 208.640625 160.503906 208.640625 156.9375 C 208.640625 156.9375 208.640625 97.429688 208.632812 67.664062 " fill-opacity="1" fill-rule="nonzero"/></g><g clip-path="url(#id2)"><path fill="#7f8b99" d="M 122.171875 7.066406 C 115.269531 3.082031 108.582031 3.226562 101.730469 7.269531 C 91.542969 13.277344 40.515625 42.507812 25.304688 51.3125 C 19.046875 54.9375 16 60.480469 16 67.691406 C 15.988281 97.378906 16 127.0625 15.988281 156.753906 C 15.992188 160.304688 16.734375 163.449219 18.238281 166.167969 C 19.78125 168.957031 22.128906 171.296875 25.300781 173.132812 C 28.785156 175.148438 34.148438 178.242188 40.472656 181.875 L 181.261719 41.101562 C 161.566406 29.765625 141.859375 18.429688 122.171875 7.066406 " fill-opacity="1" fill-rule="nonzero"/></g><path fill="#ffffff" d="M 132.226562 98.734375 L 162.207031 98.945312 C 162.207031 86.457031 149.554688 55.871094 113.304688 55.871094 C 90.210938 55.871094 59.164062 70.550781 59.164062 112.761719 C 59.164062 154.96875 89.601562 168.730469 113.304688 168.730469 C 151.699219 168.730469 160.875 142.171875 160.875 127.160156 L 132.269531 125.527344 C 132.269531 125.527344 133.039062 142.886719 113.15625 142.886719 C 94.800781 142.886719 91.738281 120.40625 91.738281 112.761719 C 91.738281 101.136719 95.871094 82.484375 113.15625 82.484375 C 130.441406 82.484375 132.226562 98.734375 132.226562 98.734375 " fill-opacity="1" fill-rule="nonzero"/></svg>