<svg xmlns="http://www.w3.org/2000/svg" xmlns:xlink="http://www.w3.org/1999/xlink" width="300" zoomAndPan="magnify" viewBox="0 0 224.87999 225" height="300" preserveAspectRatio="xMidYMid meet" version="1.0"><defs><clipPath id="id1"><path d="M 32.867188 44 L 191.78125 44 L 191.78125 224.410156 L 32.867188 224.410156 Z M 32.867188 44 " clip-rule="nonzero"/></clipPath><clipPath id="id2"><path d="M 70 0.28125 L 95 0.28125 L 95 31 L 70 31 Z M 70 0.28125 " clip-rule="nonzero"/></clipPath><clipPath id="id3"><path d="M 99 0.28125 L 124 0.28125 L 124 31 L 99 31 Z M 99 0.28125 " clip-rule="nonzero"/></clipPath><clipPath id="id4"><path d="M 128 0.28125 L 153 0.28125 L 153 31 L 128 31 Z M 128 0.28125 " clip-rule="nonzero"/></clipPath></defs><g clip-path="url(#id1)"><path fill="#264de4" d="M 112.253906 224.40625 L 47.414062 206.40625 L 32.964844 44.328125 L 191.738281 44.328125 L 177.277344 206.378906 L 112.257812 224.402344 Z M 112.253906 224.40625 " fill-opacity="1" fill-rule="nonzero"/></g><path fill="#2965f1" d="M 164.898438 196.058594 L 177.257812 57.578125 L 112.355469 57.578125 L 112.355469 210.621094 Z M 164.898438 196.058594 " fill-opacity="1" fill-rule="nonzero"/><path fill="#ebebeb" d="M 66.09375 117.691406 L 67.875 137.566406 L 112.355469 137.566406 L 112.355469 117.691406 Z M 66.09375 117.691406 " fill-opacity="1" fill-rule="nonzero"/><path fill="#ebebeb" d="M 62.511719 77.453125 L 64.320312 97.332031 L 112.355469 97.332031 L 112.355469 77.453125 Z M 62.511719 77.453125 " fill-opacity="1" fill-rule="nonzero"/><path fill="#ebebeb" d="M 112.355469 169.316406 L 112.269531 169.339844 L 90.128906 163.359375 L 88.714844 147.507812 L 68.761719 147.507812 L 71.546875 178.71875 L 112.261719 190.023438 L 112.355469 189.996094 Z M 112.355469 169.316406 " fill-opacity="1" fill-rule="nonzero"/><g clip-path="url(#id2)"><path fill="#000000" d="M 70.332031 0.28125 L 94.410156 0.28125 L 94.410156 10.347656 L 80.402344 10.347656 L 80.402344 20.417969 L 94.410156 20.417969 L 94.410156 30.484375 L 70.332031 30.484375 Z M 70.332031 0.28125 " fill-opacity="1" fill-rule="nonzero"/></g><g clip-path="url(#id3)"><path fill="#000000" d="M 99.222656 0.28125 L 123.296875 0.28125 L 123.296875 9.035156 L 109.292969 9.035156 L 109.292969 10.785156 L 123.296875 10.785156 L 123.296875 30.921875 L 99.222656 30.921875 L 99.222656 21.730469 L 113.234375 21.730469 L 113.234375 19.980469 L 99.222656 19.980469 Z M 99.222656 0.28125 " fill-opacity="1" fill-rule="nonzero"/></g><g clip-path="url(#id4)"><path fill="#000000" d="M 128.113281 0.28125 L 152.1875 0.28125 L 152.1875 9.035156 L 138.179688 9.035156 L 138.179688 10.785156 L 152.1875 10.785156 L 152.1875 30.921875 L 128.113281 30.921875 L 128.113281 21.730469 L 142.117188 21.730469 L 142.117188 19.980469 L 128.113281 19.980469 Z M 128.113281 0.28125 " fill-opacity="1" fill-rule="nonzero"/></g><path fill="#ffffff" d="M 158.492188 117.691406 L 162.078125 77.453125 L 112.285156 77.453125 L 112.285156 97.332031 L 140.292969 97.332031 L 138.488281 117.691406 L 112.285156 117.691406 L 112.285156 137.566406 L 136.765625 137.566406 L 134.457031 163.347656 L 112.285156 169.332031 L 112.285156 190.011719 L 153.035156 178.71875 L 153.332031 175.359375 L 158.007812 123.027344 Z M 158.492188 117.691406 " fill-opacity="1" fill-rule="nonzero"/></svg>